<svg width="62" height="61" viewBox="0 0 62 61" fill="none" xmlns="http://www.w3.org/2000/svg">
<path d="M36.355 47.2856C31.4232 45.4284 26.3504 45.1427 21.7004 46.4285C18.4595 47.2856 15.3595 48.9999 12.5413 51.1427L10.5685 52.857L10.0049 53.4284L11.2731 54.5713C11.414 54.5713 11.414 54.7142 11.5549 54.857C11.8367 55.1427 12.1186 55.2856 12.5413 55.5713L13.3867 56.1427L14.2322 55.4284C14.3731 55.2856 14.6549 54.9999 14.9367 54.857C17.4731 52.7142 20.2913 51.2856 23.2504 50.5713C27.055 49.5713 31.1413 49.7142 35.2277 51.2856C38.6096 52.5713 45.5142 54.1427 53.8278 50.5713L54.1097 50.4284L54.5324 49.9999C54.5324 49.857 54.6733 49.857 54.8142 49.7141C55.5188 48.857 56.2233 47.9999 56.7869 46.9999L59.6051 42.5713L55.096 45.1427C48.4733 48.857 42.4141 49.5713 36.355 47.2856Z" fill="#EDEDED"/>
<path d="M17.0501 31.8571C20.8547 30.8571 24.9411 31 29.0275 32.5714C33.5366 34.2857 45.0912 36.7143 58.0549 24.8571L60.1685 22.7142L60.3094 22.5714L60.8731 22L60.5912 21.2857C60.4503 20.7142 60.1685 20 59.8867 19.2857L59.1821 17.2856L57.773 18.7142C57.6321 18.9999 57.3503 19.1428 57.0685 19.4285C50.8685 25.8571 41.2866 32.4285 30.2956 28.4285C25.3638 26.5714 20.2911 26.2857 15.641 27.5714C11.1319 28.8571 7.18644 31.2857 3.52278 34.7142V34.5714L1.40914 36.8571C1.40914 37 1.26825 37 1.12734 37.1428L0.70459 37.5714L0.845508 38.1428C0.986418 38.8571 1.26823 39.5714 1.40914 40.2857L2.25461 42.5714L3.6637 40.7143C3.80461 40.4285 4.08642 40.2857 4.22733 40C7.18644 37.2857 11.2728 33.4285 17.0501 31.8571Z" fill="#EDEDED"/>
<path d="M3.38187 29.286C6.62279 25.8574 10.2864 23.7145 14.2319 22.5717C18.0365 21.5717 22.1228 21.7145 26.2092 23.2859C38.8911 28.0002 49.8821 20.2859 54.673 16.1431L56.5048 14.286L57.2094 13.7145L56.6457 12.8574C56.223 12.4288 55.9412 11.8574 55.5185 11.286L54.673 10.1431L53.6866 11.1431C53.5457 11.2859 53.2639 11.5716 53.123 11.7145C47.2048 17.4288 38.0456 23.286 27.6183 19.286C22.6865 17.4288 17.6137 17.1431 12.9637 18.4288C10.0046 19.286 7.18641 20.7145 4.36821 22.5717L1.4091 25.0003C1.12728 25.286 0.986368 25.4288 0.704549 25.7145L0.422755 26.0002V26.4288C0.281845 27.4288 0.281828 28.4288 0.140918 29.286L0 32.8574L2.39548 30.2859C2.6773 30.0002 2.95914 29.5717 3.38187 29.286Z" fill="#EDEDED"/>
<path d="M40.4409 57L40.1591 57.8571L40.4409 57C40.0182 56.8571 39.7364 56.7142 39.3137 56.5714C34.3818 54.7142 29.309 54.4286 24.659 55.7143C23.6727 56 22.6863 56.2857 21.6999 56.7142L18.3181 58.2857L17.4727 58.7142L20.2909 59.7143C21.1363 60 21.9818 60.2857 22.8272 60.5714L23.2499 60.7143L23.6727 60.5714C24.0954 60.4285 24.5181 60.1428 24.9409 60.1428C25.2227 60.1428 25.5045 60 25.7863 59.8571C29.1682 59 32.8318 59 36.7773 60.2857C37.2 60.4285 37.4818 60.5714 37.9046 60.7143L38.6091 61L39.0318 60.8571C40.0182 60.5714 41.1455 60.2857 41.9909 59.8571L45.9364 58.4285L41.85 57.4285C41.4273 57.2857 40.8637 57.1428 40.4409 57Z" fill="#EDEDED"/>
<path d="M62.0002 27.4287L59.8865 29.5716C59.6047 29.8573 59.3229 30.143 59.0411 30.4287C53.2638 36.0002 43.9637 42.0001 33.5364 38.0001C28.6046 36.143 23.5318 35.8573 18.8818 37.143C14.5136 38.4287 10.5681 40.7144 7.04534 44.143L5.21353 46.143L4.6499 46.8573L5.21353 47.7145C5.63626 48.2859 5.9181 48.7145 6.19992 49.2859L7.04534 50.5716L8.03173 49.2859C8.17264 49.143 8.45445 48.8573 8.59536 48.7144C11.9772 45.0001 15.6408 42.7144 19.8681 41.5716C23.6727 40.5716 27.7591 40.7144 31.8455 42.2859C35.3682 43.5716 39.0319 44.0002 42.6955 43.5716C49.1774 42.8573 55.6592 39.143 60.4502 35.0002C60.732 34.7145 61.0138 34.5716 61.2956 34.2859L61.7184 33.8573V33.4287C61.7184 32.5716 61.8593 31.5716 61.8593 30.7145L62.0002 27.4287Z" fill="#EDEDED"/>
<path d="M8.4551 14.2854L8.03239 13.4283L8.4551 14.2854C9.30056 13.8569 10.287 13.5711 11.1324 13.2854C14.937 12.2854 19.0234 12.4283 23.1097 13.9997C25.787 14.9997 28.4643 15.4283 31.4234 15.4283C37.3416 15.4283 43.2598 13.2854 48.7553 9.14258L50.8689 7.42828L51.5735 6.85686L50.3053 5.85684C49.8826 5.42827 49.3189 4.99971 48.7553 4.714L47.9098 4.14258L47.2053 4.714C46.9235 4.85686 46.7826 5.14256 46.5007 5.28542C39.0325 10.9997 31.5643 12.5712 24.5188 9.85687C19.4461 7.99972 14.3733 7.57115 9.30057 9.14258C8.87784 9.28544 8.45511 9.42828 7.89147 9.57114L7.60967 9.714L7.18692 10.1426C7.18692 10.2854 7.04604 10.2854 6.90513 10.4283C6.34149 11.2854 5.63691 11.9997 5.07327 12.8569L2.396 16.9997L6.76421 14.714C7.46876 14.714 8.03237 14.4283 8.4551 14.2854Z" fill="#EDEDED"/>
<path d="M20.0091 4.5714L20.4318 4.71427C22.2637 5.42856 25.0819 6.14284 28.6046 6.14284C32.2683 6.14284 35.791 5.28569 39.3138 3.85712L43.682 1.71426L40.7229 0.714286C39.8774 0.428572 39.0319 0.142857 38.0456 0H37.6228L37.2001 0.142822C36.7774 0.28568 36.3546 0.571429 35.9319 0.714286C31.7046 2.28572 27.4773 2.57143 23.391 1.42857C22.9682 1.28571 22.5455 1.14283 22.1228 0.999974L21.7001 0.857108L21.2773 0.999974C20.4318 1.28569 19.5864 1.57142 18.741 1.99999L15.5 3.42856L18.8819 4.42854C19.1637 4.28568 19.5864 4.42855 20.0091 4.5714Z" fill="#EDEDED"/>
</svg>
